# xmcd
#
# Track frame offsets:
#	150
#	15745
#	29588
#	55361
#	69936
#	86343
#	108302
#	123318
#	151397
#	167325
#
# Disc length: 2593 seconds
#
# Revision: 0
# Processed by: cddbd v1.5.1PL0 Copyright (c) Steve Scherf et al.
# Submitted via: EasyCDDAExtractor 8.2.1.1
#
DISCID=740a1f0a
DTITLE=goldrush - ozona
DYEAR=2005
DGENRE=country
TTITLE0=wait for the wheels
TTITLE1=same picture
TTITLE2=things i've lost
TTITLE3=all the faces
TTITLE4=feel
TTITLE5=let you down
TTITLE6=come on come on
TTITLE7=counting song
TTITLE8=what i thought
TTITLE9=there's world
EXTD=
EXTT0=
EXTT1=
EXTT2=
EXTT3=
EXTT4=
EXTT5=
EXTT6=
EXTT7=
EXTT8=
EXTT9=
PLAYORDER=
